<svg xmlns="http://www.w3.org/2000/svg" version="1.1" xmlns:xlink="http://www.w3.org/1999/xlink" width="1000" height="1000"><style>
    #light-icon {
      display: inline;
    }
    #dark-icon {
      display: none;
    }

    @media (prefers-color-scheme: dark) {
      #light-icon {
        display: none;
      }
      #dark-icon {
        display: inline;
      }
    }
  </style><g id="light-icon"><svg xmlns="http://www.w3.org/2000/svg" version="1.1" xmlns:xlink="http://www.w3.org/1999/xlink" width="1000" height="1000"><g><g transform="matrix(0.4011231448054553,0,0,0.4011231448054553,0,70.39310068190935)"><svg xmlns="http://www.w3.org/2000/svg" version="1.1" xmlns:xlink="http://www.w3.org/1999/xlink" width="2493" height="2142.02"><svg xmlns="http://www.w3.org/2000/svg" viewBox="0 0 2493 2142.02">
  <path d="M1246.52,0c-49.51,84.01-99.01,168.01-148.52,252.02l936,1629h-729l-144,261h1332C2077.51,1428.01,1662.01,714.01,1246.52,0Z"></path>
  <path d="M603,1611.02h954L945,522.02,0,2142.02h846l135-261H459l144-270ZM954,1026.02l189,342h-378l189-342Z"></path>
</svg></svg></g></g></svg></g><g id="dark-icon"><svg xmlns="http://www.w3.org/2000/svg" version="1.1" xmlns:xlink="http://www.w3.org/1999/xlink" width="1000" height="1000"><g><g transform="matrix(0.4011231448054553,0,0,0.4011231448054553,0,70.39310068190935)"><svg xmlns="http://www.w3.org/2000/svg" version="1.1" xmlns:xlink="http://www.w3.org/1999/xlink" width="2493" height="2142.02"><svg xmlns="http://www.w3.org/2000/svg" viewBox="0 0 2493 2142.02">
  <path fill="white" d="M1246.52,0c-49.51,84.01-99.01,168.01-148.52,252.02l936,1629h-729l-144,261h1332C2077.51,1428.01,1662.01,714.01,1246.52,0Z" data-darkreader-inline-fill="" style="--darkreader-inline-fill: var(--darkreader-background-ffffff, #181a1b);"></path>
  <path fill="white" d="M603,1611.02h954L945,522.02,0,2142.02h846l135-261H459l144-270ZM954,1026.02l189,342h-378l189-342Z" data-darkreader-inline-fill="" style="--darkreader-inline-fill: var(--darkreader-background-ffffff, #181a1b);"></path>
</svg></svg></g></g></svg></g></svg>