<svg version="1" xmlns="http://www.w3.org/2000/svg" width="346.667" height="346.667" viewBox="0 0 260.000000 260.000000"><path d="M116.5 25.8c-8.3 1.6-24.3 8.8-30.5 13.8-12.8 10.3-22.6 25-26 39.2-.7 2.8-.5 3.3.8 3 .9-.2 2.2-2.2 2.9-4.8 3.2-11.1 10.2-22 19.8-30.8 8.1-7.4 22.2-15 31.1-16.6 1-.2 3.8-.7 6.2-1.1 2.7-.4 4.2-1.2 4.2-2.1 0-1.4-3.1-1.6-8.5-.6zM136.3 26.5c0 .8.2 1.5.4 1.5s3.9.7 8.1 1.6c23.6 4.8 43.2 21.8 51.2 44.3 1.8 5 3.3 7.5 4.4 7.7 1 .1 1.6-.3 1.3-.9-.2-.7-1.4-4.2-2.6-7.9-4.7-14.1-17.3-29.4-31-37.6-12-7.1-31.8-12.6-31.8-8.7zM58 34.7C29.9 57.5 13.7 90.8 13.5 126c0 11.3.3 14.5 2 23 .3 1.4.7 3.6 1 4.9.2 1.3.6 2.5.7 2.6.3.3 28-17.6 30.4-19.6.9-.7.7-2.2-.6-5.7-4.4-11.5-6.6-30.5-4.8-41.7.4-2.8 1-6.8 1.4-9 .3-2.1 1.1-4.8 1.6-6 .6-1.1 1-2 .8-2-.6 0 2.3-8.1 4.8-13 2.6-5.3 8.8-15.1 10.9-17.3 1-1.1 2-11.3 1.1-11.2-.2.1-2.3 1.7-4.8 3.7zM197.9 33.6c-.2 4.9.2 6.8 1.9 9.3 10.5 14.9 15.3 25.9 18.1 41 2.7 15.3 1.2 33.9-4 47.5-1 2.8-1.8 5.1-1.6 5.1.6.5 22 14.3 26.4 17.2l5.2 3.3 1-5.3c2.1-10 2.8-18.3 2.6-27.7-.5-18.6-4.4-33.5-13-50.5-7.3-14.5-16.9-26.3-30.7-37.9l-5.8-4.8-.1 2.8z"/><path d="M119 35.5c-8.8 1.7-14.2 4-22.2 9.2C72 61 62.7 93.8 75.2 121c6.5 14.2 20 26.5 34.6 31.6 4.6 1.7 5.2 2.2 5.2 4.6 0 1.6.9 4.8 2.1 7.3 2 4.3 2.1 6.1 2.3 39.7l.1 35.1 10-.1c5.5 0 10.5-.1 11.1-.1.7-.1 1.1-11 1.1-35.4 0-34 .1-35.4 2.2-39.4 1.1-2.3 2.1-5.5 2.1-7 0-2.5.6-3 5.3-4.7 31.5-11 48.5-48.4 35.9-79.2-7.4-18.2-22-31.6-40.2-36.8-7.4-2.1-20-2.6-28-1.1z"/><path d="M59.4 112.4c-1.5 3.9 8 24.9 14.1 31.2.6.7 2.3 2.6 3.7 4.3 5.1 6 23.8 18.8 23.8 16.2 0-.5-.4-1.3-1-1.6-.5-.3-1-1.6-1-2.9 0-1.6-1.5-3.2-5.2-5.7-11.8-7.6-22.5-21.5-26.9-34.9-2.6-7.7-2.1-7-4.8-7.5-1.3-.2-2.4.2-2.7.9zM194.1 118.5c-4.3 13.8-14.3 26.9-26.5 35.1-3.1 2-5.4 4.3-5.4 5.2 0 1-.3 2.5-.7 3.4-1.2 2.9.8 2.1 8.8-3.2 14.1-9.4 25.6-24.8 30.1-39.9 2.1-7.2 2.1-7.6-1.2-7.6-2.7-.1-3 .4-5.1 7zM35.8 155.5c-8.7 5.8-15.8 10.7-15.8 11.1 0 .3 1.8 4.4 4 9.1 14.4 30.8 40.4 53.6 72.5 63.4 3.3 1.1 6.6 1.9 7.3 1.9 1.9 0 1.7-30.5-.3-34.4-.8-1.5-1.5-3.6-1.5-4.5-.1-3.2-2.7-6-12.7-13.5-8.4-6.3-10.6-8.5-12.7-12.9-1.5-2.8-5.9-8.6-9.9-12.8-3.9-4.2-8.5-9.9-10.2-12.8-1.6-2.8-3.4-5.1-4-5-.5 0-8.1 4.7-16.7 10.4zM205.3 148.8c-3 5.2-5.9 8.8-12.7 15.7-3.2 3.3-6.6 7.8-7.6 10-2.2 4.9-5.7 8.7-13.9 14.5-9.7 6.9-10.6 8-12.9 15.1-1.9 5.5-2.2 8.9-2.2 21.7 0 12 .3 15.2 1.3 15.2 1.9 0 13-3.7 20.2-6.7 24.1-10 46.7-31.9 58.8-56.9 4.1-8.5 5.2-12.4 3.6-12.4-.6 0-2.8-1.3-4.8-2.9-2-1.5-4-3-4.6-3.2-.5-.2-5.6-3.4-11.2-7.2-5.6-3.7-10.6-6.7-11-6.7-.4 0-1.8 1.7-3 3.8z"/></svg>